<svg width="260" height="84" viewBox="0 0 260 84" xmlns="http://www.w3.org/2000/svg">
  <!-- Background -->
  <rect width="260" height="84" fill="white" rx="4"/>
  
  <!-- Tree trunk -->
  <rect x="30" y="50" width="18" height="25" fill="#8B4513" rx="3"/>
  
  <!-- Apple tree foliage -->
  <circle cx="39" cy="35" r="22" fill="#90EE90"/>
  <circle cx="25" cy="42" r="16" fill="#7CCD7C"/>
  <circle cx="53" cy="42" r="16" fill="#7CCD7C"/>
  <circle cx="32" cy="25" r="14" fill="#98FB98"/>
  <circle cx="46" cy="25" r="14" fill="#98FB98"/>
  
  <!-- Apples on tree -->
  <g>
    <!-- Apple 1 -->
    <circle cx="28" cy="32" r="4.5" fill="#DC143C"/>
    <ellipse cx="28" cy="30.5" rx="1" ry="1.5" fill="#654321"/>
    <path d="M 28 30.5 Q 27 28.5 26 29.5" stroke="#228B22" stroke-width="1" fill="none"/>
    
    <!-- Apple 2 -->
    <circle cx="45" cy="37" r="4.5" fill="#DC143C"/>
    <ellipse cx="45" cy="35.5" rx="1" ry="1.5" fill="#654321"/>
    <path d="M 45 35.5 Q 46 33.5 47 34.5" stroke="#228B22" stroke-width="1" fill="none"/>
    
    <!-- Apple 3 -->
    <circle cx="50" cy="45" r="4" fill="#FF6347"/>
    <ellipse cx="50" cy="43.8" rx="1" ry="1.5" fill="#654321"/>
    <path d="M 50 43.8 Q 51 42 52 43" stroke="#228B22" stroke-width="1" fill="none"/>
  </g>
  
  <!-- Ground -->
  <ellipse cx="39" cy="75" rx="28" ry="4" fill="#D2B48C"/>
  
  <!-- Text -->
  <text x="85" y="38" font-family="Arial, sans-serif" font-size="20" font-weight="bold" fill="#DC143C">Apple Tree</text>
  <text x="85" y="54" font-family="Arial, sans-serif" font-size="16" fill="#8B4513">Daycare</text>
  <text x="85" y="68" font-family="Arial, sans-serif" font-size="11" fill="#888">蘋果樹幼兒園</text>
</svg>
