<svg width="260" height="84" viewBox="0 0 260 84" xmlns="http://www.w3.org/2000/svg">
  <!-- Background -->
  <rect width="260" height="84" fill="white" rx="4"/>
  
  <!-- Sun (yellow rays) -->
  <g transform="translate(42, 42)">
    <!-- Rays -->
    <g fill="#FFD700">
      <rect x="-3" y="-35" width="6" height="12" rx="3"/>
      <rect x="-3" y="-35" width="6" height="12" rx="3" transform="rotate(45)"/>
      <rect x="-3" y="-35" width="6" height="12" rx="3" transform="rotate(90)"/>
      <rect x="-3" y="-35" width="6" height="12" rx="3" transform="rotate(135)"/>
      <rect x="-3" y="-35" width="6" height="12" rx="3" transform="rotate(180)"/>
      <rect x="-3" y="-35" width="6" height="12" rx="3" transform="rotate(225)"/>
      <rect x="-3" y="-35" width="6" height="12" rx="3" transform="rotate(270)"/>
      <rect x="-3" y="-35" width="6" height="12" rx="3" transform="rotate(315)"/>
    </g>
    
    <!-- Sun face -->
    <circle cx="0" cy="0" r="18" fill="#FFD700"/>
    <circle cx="-6" cy="-3" r="2" fill="#333"/>
    <circle cx="6" cy="-3" r="2" fill="#333"/>
    <path d="M -8 4 Q 0 9 8 4" stroke="#333" stroke-width="2" fill="none" stroke-linecap="round"/>
  </g>
  
  <!-- Green leaf (left) -->
  <path d="M 20 60 Q 15 45 25 35 Q 30 50 20 60 Z" fill="#7CB342"/>
  <path d="M 22 57 Q 20 48 25 42" stroke="#558B2F" stroke-width="1" fill="none"/>
  
  <!-- Blue water/book (right) -->
  <path d="M 50 55 Q 55 45 65 45 Q 60 55 55 62 Q 52 60 50 55 Z" fill="#42A5F5"/>
  <path d="M 52 56 Q 55 50 60 49" stroke="#1976D2" stroke-width="1" fill="none"/>
  
  <!-- Text -->
  <text x="85" y="45" font-family="Arial, sans-serif" font-size="20" font-weight="bold" fill="#FFD700">Sunny Child Care</text>
  <text x="85" y="62" font-family="Arial, sans-serif" font-size="12" fill="#666">中英雙語幼兒園</text>
</svg>
