<svg width="260" height="84" viewBox="0 0 260 84" xmlns="http://www.w3.org/2000/svg">
  <!-- Background -->
  <rect width="260" height="84" fill="white" rx="4"/>
  
  <!-- Sun -->
  <circle cx="42" cy="28" r="16" fill="#FFD700"/>
  <g stroke="#FFD700" stroke-width="3" stroke-linecap="round">
    <line x1="42" y1="5" x2="42" y2="10"/>
    <line x1="42" y1="46" x2="42" y2="51"/>
    <line x1="19" y1="28" x2="24" y2="28"/>
    <line x1="60" y1="28" x2="65" y2="28"/>
    <line x1="25" y1="12" x2="29" y2="16"/>
    <line x1="55" y1="40" x2="59" y2="44"/>
    <line x1="55" y1="12" x2="59" y2="16"/>
    <line x1="25" y1="40" x2="29" y2="44"/>
  </g>
  <circle cx="38" cy="26" r="1.5" fill="#FF8C00"/>
  <circle cx="46" cy="26" r="1.5" fill="#FF8C00"/>
  <path d="M 38 30 Q 42 32 46 30" stroke="#FF8C00" stroke-width="1.5" fill="none" stroke-linecap="round"/>
  
  <!-- Garden flower -->
  <g transform="translate(42, 60)">
    <!-- Stem -->
    <line x1="0" y1="-5" x2="0" y2="15" stroke="#228B22" stroke-width="2.5"/>
    
    <!-- Petals -->
    <ellipse cx="0" cy="-13" rx="5" ry="8" fill="#FF69B4" transform="rotate(0 0 -13)"/>
    <ellipse cx="0" cy="-13" rx="5" ry="8" fill="#FF69B4" transform="rotate(72 0 -13)"/>
    <ellipse cx="0" cy="-13" rx="5" ry="8" fill="#FF69B4" transform="rotate(144 0 -13)"/>
    <ellipse cx="0" cy="-13" rx="5" ry="8" fill="#FF69B4" transform="rotate(216 0 -13)"/>
    <ellipse cx="0" cy="-13" rx="5" ry="8" fill="#FF69B4" transform="rotate(288 0 -13)"/>
    
    <!-- Center -->
    <circle cx="0" cy="-13" r="4" fill="#FFD700"/>
    
    <!-- Leaves -->
    <path d="M 0 0 Q -8 0 -8 6 Q -8 3 0 3" fill="#228B22"/>
    <path d="M 0 6 Q 8 6 8 12 Q 8 9 0 9" fill="#228B22"/>
  </g>
  
  <!-- Ground -->
  <rect x="20" y="70" width="44" height="4" fill="#8B4513" rx="2"/>
  
  <!-- Text -->
  <text x="95" y="38" font-family="Arial, sans-serif" font-size="20" font-weight="bold" fill="#228B22">Sunny Garden</text>
  <text x="95" y="54" font-family="Arial, sans-serif" font-size="16" fill="#4A7C59">Daycare</text>
  <text x="95" y="68" font-family="Arial, sans-serif" font-size="11" fill="#888">陽光花園幼兒園</text>
</svg>
