<svg width="260" height="84" viewBox="0 0 260 84" xmlns="http://www.w3.org/2000/svg">
  <!-- Background -->
  <rect width="260" height="84" fill="white" rx="4"/>
  
  <!-- Butterfly body -->
  <ellipse cx="42" cy="42" rx="4" ry="12" fill="#8B4513"/>
  <circle cx="42" cy="32" r="5" fill="#8B4513"/>
  
  <!-- Butterfly antennae -->
  <path d="M 42 27 Q 38 20 36 18" stroke="#8B4513" stroke-width="1.5" fill="none" stroke-linecap="round"/>
  <circle cx="36" cy="18" r="1.5" fill="#FF69B4"/>
  <path d="M 42 27 Q 46 20 48 18" stroke="#8B4513" stroke-width="1.5" fill="none" stroke-linecap="round"/>
  <circle cx="48" cy="18" r="1.5" fill="#FF69B4"/>
  
  <!-- Left wings -->
  <g>
    <!-- Upper left wing -->
    <path d="M 38 32 Q 15 25 12 30 Q 10 35 15 40 Q 20 38 25 36 Q 30 34 38 36" fill="#FFB6C1"/>
    <path d="M 38 32 Q 15 25 12 30 Q 10 35 15 40 Q 20 38 25 36 Q 30 34 38 36" fill="#FF69B4" opacity="0.5"/>
    <circle cx="22" cy="32" r="3" fill="#9C27B0" opacity="0.6"/>
    
    <!-- Lower left wing -->
    <path d="M 38 46 Q 18 48 14 52 Q 12 56 16 60 Q 22 58 28 54 Q 34 50 38 48" fill="#E1BEE7"/>
    <path d="M 38 46 Q 18 48 14 52 Q 12 56 16 60 Q 22 58 28 54 Q 34 50 38 48" fill="#BA68C8" opacity="0.4"/>
    <circle cx="24" cy="54" r="3" fill="#7B1FA2" opacity="0.5"/>
  </g>
  
  <!-- Right wings -->
  <g>
    <!-- Upper right wing -->
    <path d="M 46 32 Q 69 25 72 30 Q 74 35 69 40 Q 64 38 59 36 Q 54 34 46 36" fill="#FFB6C1"/>
    <path d="M 46 32 Q 69 25 72 30 Q 74 35 69 40 Q 64 38 59 36 Q 54 34 46 36" fill="#FF69B4" opacity="0.5"/>
    <circle cx="62" cy="32" r="3" fill="#9C27B0" opacity="0.6"/>
    
    <!-- Lower right wing -->
    <path d="M 46 46 Q 66 48 70 52 Q 72 56 68 60 Q 62 58 56 54 Q 50 50 46 48" fill="#E1BEE7"/>
    <path d="M 46 46 Q 66 48 70 52 Q 72 56 68 60 Q 62 58 56 54 Q 50 50 46 48" fill="#BA68C8" opacity="0.4"/>
    <circle cx="60" cy="54" r="3" fill="#7B1FA2" opacity="0.5"/>
  </g>
  
  <!-- Sparkles around butterfly -->
  <g fill="#FFD700" opacity="0.7">
    <path d="M 28 22 L 29 24 L 31 23 L 30 25 L 32 26 L 30 27 L 31 29 L 29 28 L 28 30 L 27 28 L 25 29 L 26 27 L 24 26 L 26 25 L 25 23 L 27 24 Z"/>
    <path d="M 56 24 L 56.8 25.5 L 58.3 25 L 57.8 26.5 L 59.3 27 L 57.8 27.5 L 58.3 29 L 56.8 28.5 L 56 30 L 55.2 28.5 L 53.7 29 L 54.2 27.5 L 52.7 27 L 54.2 26.5 L 53.7 25 L 55.2 25.5 Z" transform="scale(0.8)"/>
  </g>
  
  <!-- Text -->
  <text x="95" y="38" font-family="Arial, sans-serif" font-size="20" font-weight="bold" fill="#9C27B0">Sweet Butterfly</text>
  <text x="95" y="54" font-family="Arial, sans-serif" font-size="16" fill="#BA68C8">Daycare</text>
  <text x="95" y="68" font-family="Arial, sans-serif" font-size="11" fill="#888">甜蜜蝴蝶幼兒園</text>
</svg>
