<svg width="64" height="64" viewBox="0 0 120 120" fill="none" xmlns="http://www.w3.org/2000/svg">
  <defs>
    <linearGradient id="faviconGradient" x1="15" y1="12" x2="105" y2="108" gradientUnits="userSpaceOnUse">
      <stop offset="0" stop-color="#A8D5BA"/>
      <stop offset="1" stop-color="#73BBD1"/>
    </linearGradient>
  </defs>
  <rect x="8" y="8" width="104" height="104" rx="28" fill="url(#faviconGradient)"/>
  <g transform="translate(-6,18)">
    <path d="M44 76C40.32 76 36.97 73.92 35.63 70.56L18.25 28.47C16.75 24.88 19.47 20.75 23.31 20.75H31.95C34.64 20.75 37 22.47 37.99 25.01L47.99 51.38C48.63 53.1 50.97 53.1 51.61 51.38L61.61 25.01C62.6 22.47 64.96 20.75 67.65 20.75H76.29C80.13 20.75 82.85 24.88 81.35 28.47L63.97 70.56C62.63 73.92 59.28 76 55.6 76H44Z" fill="#0F6C8C"/>
    <path d="M88.9 76C85.22 76 81.87 73.92 80.53 70.56L63.15 28.47C61.65 24.88 64.37 20.75 68.21 20.75H76.85C79.54 20.75 81.9 22.47 82.89 25.01L92.89 51.38C93.53 53.1 95.87 53.1 96.51 51.38L106.51 25.01C107.5 22.47 109.86 20.75 112.55 20.75H121.19C125.03 20.75 127.75 24.88 126.25 28.47L108.87 70.56C107.53 73.92 104.18 76 100.5 76H88.9Z" fill="#73BBD1"/>
  </g>
  <g transform="translate(-30,-10)">
    <circle cx="120" cy="52" r="22" fill="#FF8A5B"/>
    <path d="M120 40C113.925 40 109 44.9253 109 51C109 59.25 120 68 120 68C120 68 131 59.25 131 51C131 44.9253 126.075 40 120 40ZM125.25 52.25H121.25V56.25H118.75V52.25H114.75V49.75H118.75V45.75H121.25V49.75H125.25V52.25Z" fill="white"/>
  </g>
</svg>
